<?xml version="1.0" encoding="UTF-8"?>
<svg width="39px" height="39px" viewBox="0 0 39 39" version="1.1" xmlns="http://www.w3.org/2000/svg" xmlns:xlink="http://www.w3.org/1999/xlink">
    <title>101659A0-4101-44A3-9EEA-DB513533C6E5</title>
    <g id="BUS-Flow" stroke="none" stroke-width="1" fill="none" fill-rule="evenodd">
        <g id="19(e)-Success-message" transform="translate(-521.000000, -59.000000)" fill="#FFFFFF" fill-rule="nonzero">
            <g id="Group-18" transform="translate(501.000000, 36.000000)">
                <g id="Group-17" transform="translate(20.000000, 23.000000)">
                    <g id="fi-rr-circle">
                        <path d="M19.5,0 C8.73044738,0 0,8.73044738 0,19.5 C0,30.2695526 8.73044738,39 19.5,39 C30.2695526,39 39,30.2695526 39,19.5 C38.9883571,8.7352737 30.2647263,0.0116428774 19.5,0 Z M19.5,35.75 C10.5253728,35.75 3.25,28.4746272 3.25,19.5 C3.25,10.5253728 10.5253728,3.25 19.5,3.25 C28.4746272,3.25 35.75,10.5253728 35.75,19.5 C35.7401486,28.4705435 28.4705435,35.7401486 19.5,35.75 L19.5,35.75 Z" id="Shape"></path>
                    </g>
                    <g id="fi-rr-shield-check" transform="translate(12.000000, 14.000000)">
                        <path d="M13.2270845,0.448428629 L6.4467328,6.87118465 L2.8137077,3.29279201 C2.41679438,2.88288362 1.81576205,2.70851629 1.24367876,2.8373061 C0.671595467,2.96609591 0.218443008,3.37778578 0.0599446337,3.91273079 C-0.098553741,4.44767581 0.062531848,5.0217356 0.480735705,5.4123015 L4.2141385,9.0824478 C4.77677959,9.6564678 5.56360334,9.98800557 6.39168697,10 L6.44511381,10 C7.25631877,10.0025136 8.03477553,9.69793109 8.60647232,9.1543215 L15.5228196,2.62146108 C16.1581105,2.02266159 16.1591978,1.05078881 15.5252481,0.45072247 C14.8912983,-0.149343873 13.8623754,-0.150370861 13.2270845,0.448428629 Z" id="Path"></path>
                    </g>
                </g>
            </g>
        </g>
    </g>
</svg>
