<svg xmlns="http://www.w3.org/2000/svg" width="24" height="24" viewBox="0 0 24 24">
    <g fill="none" fill-rule="nonzero">
        <path fill="#F1F3F6" d="M12 0C5.376 0 0 5.376 0 12s5.376 12 12 12 12-5.376 12-12S18.624 0 12 0z"/>
        <path fill="#9D1D28" d="M9.454 7.757L12 10.303l2.546-2.546a1.204 1.204 0 0 1 1.697 0c.466.467.466 1.23 0 1.697L13.697 12l2.546 2.546c.466.466.466 1.23 0 1.697a1.204 1.204 0 0 1-1.697 0L12 13.697l-2.546 2.546a1.204 1.204 0 0 1-1.697 0 1.204 1.204 0 0 1 0-1.697L10.303 12 7.757 9.454a1.204 1.204 0 0 1 0-1.697 1.204 1.204 0 0 1 1.697 0z"/>
    </g>
</svg>
