<svg width="20" height="20" viewBox="0 0 20 20" fill="none" xmlns="http://www.w3.org/2000/svg">
<g clip-path="url(#clip0_567_218)">
<path d="M12.1085 7.89161L7.89185 12.1083C7.33269 11.5491 7.01855 10.7907 7.01855 9.99994C7.01855 9.60839 7.09568 9.22067 7.24552 8.85892C7.39536 8.49717 7.61498 8.16848 7.89185 7.89161C8.16873 7.61474 8.49742 7.39512 8.85917 7.24527C9.22091 7.09543 9.60863 7.01831 10.0002 7.01831C10.791 7.01831 11.5494 7.33245 12.1085 7.89161V7.89161Z" stroke="#B1C2DF" stroke-width="1.5" stroke-linecap="round" stroke-linejoin="round"/>
<path d="M14.8499 4.8084C13.3915 3.7084 11.7249 3.1084 9.99987 3.1084C7.0582 3.1084 4.31654 4.84173 2.4082 7.84173C1.6582 9.01673 1.6582 10.9917 2.4082 12.1667C3.06654 13.2001 3.8332 14.0917 4.66654 14.8084M7.01654 16.2751C7.96654 16.6751 8.97487 16.8917 9.99987 16.8917C12.9415 16.8917 15.6832 15.1584 17.5915 12.1584C18.3415 10.9834 18.3415 9.0084 17.5915 7.8334C17.3165 7.40006 17.0165 6.99173 16.7082 6.6084" stroke="#B1C2DF" stroke-width="1.5" stroke-linecap="round" stroke-linejoin="round"/>
<path d="M12.9248 10.5834C12.8119 11.1647 12.5279 11.699 12.1092 12.1178C11.6905 12.5365 11.1561 12.8205 10.5748 12.9334M7.8915 12.1084L1.6665 18.3334M18.3332 1.66675L12.1082 7.89175" stroke="#B1C2DF" stroke-width="1.5" stroke-linecap="round" stroke-linejoin="round"/>
</g>
<defs>
<clipPath id="clip0_567_218">
<rect width="20" height="20" fill="white"/>
</clipPath>
</defs>
</svg>
